<svg xmlns="http://www.w3.org/2000/svg" xmlns:xlink="http://www.w3.org/1999/xlink" width="293" zoomAndPan="magnify" viewBox="0 0 219.75 44.999999" height="60" preserveAspectRatio="xMidYMid meet" version="1.0"><defs><g/><clipPath id="f2e6699923"><path d="M 0 0.0273438 L 219.5 0.0273438 L 219.5 44.972656 L 0 44.972656 Z M 0 0.0273438 " clip-rule="nonzero"/></clipPath></defs><g clip-path="url(#f2e6699923)"><path fill="#ffffff" d="M 0 0.0273438 L 219.5 0.0273438 L 219.5 44.972656 L 0 44.972656 Z M 0 0.0273438 " fill-opacity="1" fill-rule="nonzero"/><path fill="#ffffff" d="M 0 0.0273438 L 219.5 0.0273438 L 219.5 44.972656 L 0 44.972656 Z M 0 0.0273438 " fill-opacity="1" fill-rule="nonzero"/></g><g fill="#0f9d58" fill-opacity="1"><g transform="translate(0.140465, 30.726073)"><g><path d="M 6.234375 -9.28125 L 6.234375 0 L 1.78125 0 L 1.78125 -16.0625 L 6.015625 -16.0625 L 6.015625 -13.21875 L 6.203125 -13.21875 C 6.566406 -14.15625 7.164062 -14.894531 8 -15.4375 C 8.832031 -15.988281 9.847656 -16.265625 11.046875 -16.265625 C 12.710938 -16.265625 14.050781 -15.722656 15.0625 -14.640625 C 16.070312 -13.566406 16.578125 -12.09375 16.578125 -10.21875 L 16.578125 0 L 12.125 0 L 12.125 -9.421875 C 12.132812 -10.410156 11.882812 -11.179688 11.375 -11.734375 C 10.863281 -12.285156 10.160156 -12.5625 9.265625 -12.5625 C 8.367188 -12.5625 7.640625 -12.273438 7.078125 -11.703125 C 6.515625 -11.128906 6.234375 -10.320312 6.234375 -9.28125 Z M 6.234375 -9.28125 "/></g></g></g><g fill="#0f9d58" fill-opacity="1"><g transform="translate(18.445888, 30.726073)"><g><path d="M 9.09375 0.3125 C 7.445312 0.3125 6.023438 -0.0195312 4.828125 -0.6875 C 3.640625 -1.363281 2.722656 -2.320312 2.078125 -3.5625 C 1.441406 -4.800781 1.125 -6.265625 1.125 -7.953125 C 1.125 -9.609375 1.441406 -11.054688 2.078125 -12.296875 C 2.722656 -13.546875 3.628906 -14.519531 4.796875 -15.21875 C 5.960938 -15.914062 7.335938 -16.265625 8.921875 -16.265625 C 10.335938 -16.265625 11.613281 -15.960938 12.75 -15.359375 C 13.882812 -14.765625 14.785156 -13.863281 15.453125 -12.65625 C 16.128906 -11.445312 16.46875 -9.929688 16.46875 -8.109375 L 16.46875 -6.890625 L 5.53125 -6.890625 L 5.53125 -6.875 C 5.53125 -5.675781 5.859375 -4.734375 6.515625 -4.046875 C 7.171875 -3.359375 8.054688 -3.015625 9.171875 -3.015625 C 9.910156 -3.015625 10.550781 -3.171875 11.09375 -3.484375 C 11.644531 -3.796875 12.03125 -4.257812 12.25 -4.875 L 16.375 -4.59375 C 16.0625 -3.101562 15.265625 -1.910156 13.984375 -1.015625 C 12.710938 -0.128906 11.082031 0.3125 9.09375 0.3125 Z M 5.53125 -9.65625 L 12.265625 -9.65625 C 12.265625 -10.601562 11.957031 -11.382812 11.34375 -12 C 10.738281 -12.625 9.953125 -12.9375 8.984375 -12.9375 C 7.992188 -12.9375 7.179688 -12.613281 6.546875 -11.96875 C 5.921875 -11.332031 5.582031 -10.5625 5.53125 -9.65625 Z M 5.53125 -9.65625 "/></g></g></g><g fill="#0f9d58" fill-opacity="1"><g transform="translate(36.04041, 30.726073)"><g><path d="M 5.5 -16.0625 L 8.453125 -10.4375 L 11.46875 -16.0625 L 16.03125 -16.0625 L 11.390625 -8.03125 L 16.15625 0 L 11.609375 0 L 8.453125 -5.546875 L 5.328125 0 L 0.734375 0 L 5.5 -8.03125 L 0.90625 -16.0625 Z M 5.5 -16.0625 "/></g></g></g><g fill="#0f9d58" fill-opacity="1"><g transform="translate(52.934504, 30.726073)"><g><path d="M 9.03125 0.3125 C 7.40625 0.3125 6 -0.03125 4.8125 -0.71875 C 3.632812 -1.414062 2.722656 -2.382812 2.078125 -3.625 C 1.441406 -4.875 1.125 -6.320312 1.125 -7.96875 C 1.125 -9.625 1.441406 -11.070312 2.078125 -12.3125 C 2.722656 -13.5625 3.632812 -14.53125 4.8125 -15.21875 C 6 -15.914062 7.40625 -16.265625 9.03125 -16.265625 C 10.65625 -16.265625 12.054688 -15.914062 13.234375 -15.21875 C 14.421875 -14.53125 15.332031 -13.5625 15.96875 -12.3125 C 16.613281 -11.070312 16.9375 -9.625 16.9375 -7.96875 C 16.9375 -6.320312 16.613281 -4.875 15.96875 -3.625 C 15.332031 -2.382812 14.421875 -1.414062 13.234375 -0.71875 C 12.054688 -0.03125 10.65625 0.3125 9.03125 0.3125 Z M 9.046875 -3.140625 C 10.148438 -3.140625 10.984375 -3.597656 11.546875 -4.515625 C 12.117188 -5.429688 12.40625 -6.59375 12.40625 -8 C 12.40625 -9.394531 12.117188 -10.554688 11.546875 -11.484375 C 10.984375 -12.410156 10.148438 -12.875 9.046875 -12.875 C 7.929688 -12.875 7.085938 -12.410156 6.515625 -11.484375 C 5.941406 -10.554688 5.65625 -9.394531 5.65625 -8 C 5.65625 -6.59375 5.941406 -5.429688 6.515625 -4.515625 C 7.085938 -3.597656 7.929688 -3.140625 9.046875 -3.140625 Z M 9.046875 -3.140625 "/></g></g></g><g fill="#0f9d58" fill-opacity="1"><g transform="translate(70.999474, 30.726073)"><g><path d="M 9.09375 0.3125 C 7.445312 0.3125 6.023438 -0.0195312 4.828125 -0.6875 C 3.640625 -1.363281 2.722656 -2.320312 2.078125 -3.5625 C 1.441406 -4.800781 1.125 -6.265625 1.125 -7.953125 C 1.125 -9.609375 1.441406 -11.054688 2.078125 -12.296875 C 2.722656 -13.546875 3.628906 -14.519531 4.796875 -15.21875 C 5.960938 -15.914062 7.335938 -16.265625 8.921875 -16.265625 C 10.335938 -16.265625 11.613281 -15.960938 12.75 -15.359375 C 13.882812 -14.765625 14.785156 -13.863281 15.453125 -12.65625 C 16.128906 -11.445312 16.46875 -9.929688 16.46875 -8.109375 L 16.46875 -6.890625 L 5.53125 -6.890625 L 5.53125 -6.875 C 5.53125 -5.675781 5.859375 -4.734375 6.515625 -4.046875 C 7.171875 -3.359375 8.054688 -3.015625 9.171875 -3.015625 C 9.910156 -3.015625 10.550781 -3.171875 11.09375 -3.484375 C 11.644531 -3.796875 12.03125 -4.257812 12.25 -4.875 L 16.375 -4.59375 C 16.0625 -3.101562 15.265625 -1.910156 13.984375 -1.015625 C 12.710938 -0.128906 11.082031 0.3125 9.09375 0.3125 Z M 5.53125 -9.65625 L 12.265625 -9.65625 C 12.265625 -10.601562 11.957031 -11.382812 11.34375 -12 C 10.738281 -12.625 9.953125 -12.9375 8.984375 -12.9375 C 7.992188 -12.9375 7.179688 -12.613281 6.546875 -11.96875 C 5.921875 -11.332031 5.582031 -10.5625 5.53125 -9.65625 Z M 5.53125 -9.65625 "/></g></g></g><g fill="#0f9d58" fill-opacity="1"><g transform="translate(88.593996, 30.726073)"><g><path d="M 5.5 -16.0625 L 8.453125 -10.4375 L 11.46875 -16.0625 L 16.03125 -16.0625 L 11.390625 -8.03125 L 16.15625 0 L 11.609375 0 L 8.453125 -5.546875 L 5.328125 0 L 0.734375 0 L 5.5 -8.03125 L 0.90625 -16.0625 Z M 5.5 -16.0625 "/></g></g></g><g fill="#0f9d58" fill-opacity="1"><g transform="translate(105.48809, 30.726073)"><g><path d="M 9.03125 0.3125 C 7.382812 0.3125 5.96875 -0.0351562 4.78125 -0.734375 C 3.601562 -1.429688 2.695312 -2.40625 2.0625 -3.65625 C 1.4375 -4.90625 1.125 -6.34375 1.125 -7.96875 C 1.125 -9.613281 1.441406 -11.054688 2.078125 -12.296875 C 2.722656 -13.546875 3.632812 -14.519531 4.8125 -15.21875 C 5.988281 -15.914062 7.390625 -16.265625 9.015625 -16.265625 C 10.410156 -16.265625 11.632812 -16.007812 12.6875 -15.5 C 13.75 -14.988281 14.582031 -14.273438 15.1875 -13.359375 C 15.800781 -12.441406 16.140625 -11.363281 16.203125 -10.125 L 12 -10.125 C 11.882812 -10.925781 11.570312 -11.570312 11.0625 -12.0625 C 10.5625 -12.550781 9.898438 -12.796875 9.078125 -12.796875 C 8.046875 -12.796875 7.21875 -12.378906 6.59375 -11.546875 C 5.96875 -10.722656 5.65625 -9.550781 5.65625 -8.03125 C 5.65625 -6.5 5.96875 -5.3125 6.59375 -4.46875 C 7.21875 -3.625 8.046875 -3.203125 9.078125 -3.203125 C 9.847656 -3.203125 10.492188 -3.429688 11.015625 -3.890625 C 11.535156 -4.359375 11.863281 -5.023438 12 -5.890625 L 16.203125 -5.890625 C 16.128906 -4.660156 15.796875 -3.578125 15.203125 -2.640625 C 14.609375 -1.710938 13.785156 -0.988281 12.734375 -0.46875 C 11.691406 0.0507812 10.457031 0.3125 9.03125 0.3125 Z M 9.03125 0.3125 "/></g></g></g><g fill="#0f9d58" fill-opacity="1"><g transform="translate(122.779449, 30.726073)"><g><path d="M 9.09375 0.3125 C 7.445312 0.3125 6.023438 -0.0195312 4.828125 -0.6875 C 3.640625 -1.363281 2.722656 -2.320312 2.078125 -3.5625 C 1.441406 -4.800781 1.125 -6.265625 1.125 -7.953125 C 1.125 -9.609375 1.441406 -11.054688 2.078125 -12.296875 C 2.722656 -13.546875 3.628906 -14.519531 4.796875 -15.21875 C 5.960938 -15.914062 7.335938 -16.265625 8.921875 -16.265625 C 10.335938 -16.265625 11.613281 -15.960938 12.75 -15.359375 C 13.882812 -14.765625 14.785156 -13.863281 15.453125 -12.65625 C 16.128906 -11.445312 16.46875 -9.929688 16.46875 -8.109375 L 16.46875 -6.890625 L 5.53125 -6.890625 L 5.53125 -6.875 C 5.53125 -5.675781 5.859375 -4.734375 6.515625 -4.046875 C 7.171875 -3.359375 8.054688 -3.015625 9.171875 -3.015625 C 9.910156 -3.015625 10.550781 -3.171875 11.09375 -3.484375 C 11.644531 -3.796875 12.03125 -4.257812 12.25 -4.875 L 16.375 -4.59375 C 16.0625 -3.101562 15.265625 -1.910156 13.984375 -1.015625 C 12.710938 -0.128906 11.082031 0.3125 9.09375 0.3125 Z M 5.53125 -9.65625 L 12.265625 -9.65625 C 12.265625 -10.601562 11.957031 -11.382812 11.34375 -12 C 10.738281 -12.625 9.953125 -12.9375 8.984375 -12.9375 C 7.992188 -12.9375 7.179688 -12.613281 6.546875 -11.96875 C 5.921875 -11.332031 5.582031 -10.5625 5.53125 -9.65625 Z M 5.53125 -9.65625 "/></g></g></g><g fill="#0f9d58" fill-opacity="1"><g transform="translate(140.373972, 30.726073)"><g><path d="M 6.234375 -21.40625 L 6.234375 0 L 1.78125 0 L 1.78125 -21.40625 Z M 6.234375 -21.40625 "/></g></g></g><g fill="#37374e" fill-opacity="1"><g transform="translate(148.389775, 30.726073)"><g><path d="M 4.375 0.265625 C 3.6875 0.265625 3.09375 0.0234375 2.59375 -0.453125 C 2.101562 -0.941406 1.863281 -1.535156 1.875 -2.234375 C 1.863281 -2.921875 2.101562 -3.503906 2.59375 -3.984375 C 3.09375 -4.472656 3.6875 -4.71875 4.375 -4.71875 C 5.050781 -4.71875 5.632812 -4.472656 6.125 -3.984375 C 6.625 -3.503906 6.878906 -2.921875 6.890625 -2.234375 C 6.878906 -1.535156 6.625 -0.941406 6.125 -0.453125 C 5.632812 0.0234375 5.050781 0.265625 4.375 0.265625 Z M 4.375 0.265625 "/></g></g></g><g fill="#37374e" fill-opacity="1"><g transform="translate(157.150445, 30.726073)"><g><path d="M 9.03125 0.3125 C 7.382812 0.3125 5.96875 -0.0351562 4.78125 -0.734375 C 3.601562 -1.429688 2.695312 -2.40625 2.0625 -3.65625 C 1.4375 -4.90625 1.125 -6.34375 1.125 -7.96875 C 1.125 -9.613281 1.441406 -11.054688 2.078125 -12.296875 C 2.722656 -13.546875 3.632812 -14.519531 4.8125 -15.21875 C 5.988281 -15.914062 7.390625 -16.265625 9.015625 -16.265625 C 10.410156 -16.265625 11.632812 -16.007812 12.6875 -15.5 C 13.75 -14.988281 14.582031 -14.273438 15.1875 -13.359375 C 15.800781 -12.441406 16.140625 -11.363281 16.203125 -10.125 L 12 -10.125 C 11.882812 -10.925781 11.570312 -11.570312 11.0625 -12.0625 C 10.5625 -12.550781 9.898438 -12.796875 9.078125 -12.796875 C 8.046875 -12.796875 7.21875 -12.378906 6.59375 -11.546875 C 5.96875 -10.722656 5.65625 -9.550781 5.65625 -8.03125 C 5.65625 -6.5 5.96875 -5.3125 6.59375 -4.46875 C 7.21875 -3.625 8.046875 -3.203125 9.078125 -3.203125 C 9.847656 -3.203125 10.492188 -3.429688 11.015625 -3.890625 C 11.535156 -4.359375 11.863281 -5.023438 12 -5.890625 L 16.203125 -5.890625 C 16.128906 -4.660156 15.796875 -3.578125 15.203125 -2.640625 C 14.609375 -1.710938 13.785156 -0.988281 12.734375 -0.46875 C 11.691406 0.0507812 10.457031 0.3125 9.03125 0.3125 Z M 9.03125 0.3125 "/></g></g></g><g fill="#37374e" fill-opacity="1"><g transform="translate(174.441804, 30.726073)"><g><path d="M 9.03125 0.3125 C 7.40625 0.3125 6 -0.03125 4.8125 -0.71875 C 3.632812 -1.414062 2.722656 -2.382812 2.078125 -3.625 C 1.441406 -4.875 1.125 -6.320312 1.125 -7.96875 C 1.125 -9.625 1.441406 -11.070312 2.078125 -12.3125 C 2.722656 -13.5625 3.632812 -14.53125 4.8125 -15.21875 C 6 -15.914062 7.40625 -16.265625 9.03125 -16.265625 C 10.65625 -16.265625 12.054688 -15.914062 13.234375 -15.21875 C 14.421875 -14.53125 15.332031 -13.5625 15.96875 -12.3125 C 16.613281 -11.070312 16.9375 -9.625 16.9375 -7.96875 C 16.9375 -6.320312 16.613281 -4.875 15.96875 -3.625 C 15.332031 -2.382812 14.421875 -1.414062 13.234375 -0.71875 C 12.054688 -0.03125 10.65625 0.3125 9.03125 0.3125 Z M 9.046875 -3.140625 C 10.148438 -3.140625 10.984375 -3.597656 11.546875 -4.515625 C 12.117188 -5.429688 12.40625 -6.59375 12.40625 -8 C 12.40625 -9.394531 12.117188 -10.554688 11.546875 -11.484375 C 10.984375 -12.410156 10.148438 -12.875 9.046875 -12.875 C 7.929688 -12.875 7.085938 -12.410156 6.515625 -11.484375 C 5.941406 -10.554688 5.65625 -9.394531 5.65625 -8 C 5.65625 -6.59375 5.941406 -5.429688 6.515625 -4.515625 C 7.085938 -3.597656 7.929688 -3.140625 9.046875 -3.140625 Z M 9.046875 -3.140625 "/></g></g></g><g fill="#37374e" fill-opacity="1"><g transform="translate(192.506773, 30.726073)"><g><path d="M 1.78125 0 L 1.78125 -16.0625 L 6.015625 -16.0625 L 6.015625 -13.21875 L 6.203125 -13.21875 C 6.546875 -14.164062 7.109375 -14.910156 7.890625 -15.453125 C 8.671875 -15.992188 9.601562 -16.265625 10.6875 -16.265625 C 11.78125 -16.265625 12.710938 -15.988281 13.484375 -15.4375 C 14.265625 -14.894531 14.785156 -14.15625 15.046875 -13.21875 L 15.203125 -13.21875 C 15.535156 -14.144531 16.128906 -14.882812 16.984375 -15.4375 C 17.847656 -15.988281 18.867188 -16.265625 20.046875 -16.265625 C 21.546875 -16.265625 22.765625 -15.785156 23.703125 -14.828125 C 24.640625 -13.878906 25.109375 -12.535156 25.109375 -10.796875 L 25.109375 0 L 20.671875 0 L 20.671875 -9.921875 C 20.671875 -10.816406 20.429688 -11.484375 19.953125 -11.921875 C 19.484375 -12.367188 18.890625 -12.59375 18.171875 -12.59375 C 17.367188 -12.59375 16.738281 -12.332031 16.28125 -11.8125 C 15.832031 -11.300781 15.609375 -10.632812 15.609375 -9.8125 L 15.609375 0 L 11.296875 0 L 11.296875 -10.015625 C 11.296875 -10.804688 11.066406 -11.429688 10.609375 -11.890625 C 10.160156 -12.359375 9.570312 -12.59375 8.84375 -12.59375 C 8.101562 -12.59375 7.484375 -12.320312 6.984375 -11.78125 C 6.484375 -11.238281 6.234375 -10.523438 6.234375 -9.640625 L 6.234375 0 Z M 1.78125 0 "/></g></g></g></svg>